<mxfile host="app.diagrams.net" modified="2023-10-05T18:20:23.042Z" agent="Mozilla/5.0 (Windows NT 10.0; Win64; x64) AppleWebKit/537.36 (KHTML, like Gecko) Chrome/117.0.0.0 Safari/537.36 Edg/117.0.2045.47" version="22.0.2" etag="0VyjNgjcQMhrXM5LOMyY" type="github">
  <diagram name="Page-1" id="vdFZyVoM-i4inuE1yGBP">
    <mxGraphModel>
      <root>
        <mxCell id="0" />
        <mxCell id="1" parent="0" />
      </root>
    </mxGraphModel>
  </diagram>
</mxfile>
